<?xml version="1.0" encoding="utf-8"?>
<!-- Generator: Adobe Illustrator 17.0.0, SVG Export Plug-In . SVG Version: 6.00 Build 0)  -->
<!DOCTYPE svg PUBLIC "-//W3C//DTD SVG 1.1//EN" "http://www.w3.org/Graphics/SVG/1.1/DTD/svg11.dtd">
<svg version="1.1" id="Layer_1" xmlns="http://www.w3.org/2000/svg" xmlns:xlink="http://www.w3.org/1999/xlink" x="0px" y="0px"
	 width="184.5px" height="85px" viewBox="0 0 184.5 85" enable-background="new 0 0 184.5 85" xml:space="preserve">
<g id="Layer_1_1_" display="none">
	<g display="inline">
		<g>
			<g>
				<path d="M323.543,40.603c-11.032,0-19.98,8.912-19.98,19.899c0,10.998,8.948,19.905,19.98,19.905
					c11.036,0,19.984-8.908,19.984-19.905C343.527,49.516,334.579,40.603,323.543,40.603L323.543,40.603z M369.576,40.688
					c-11.032,0-19.98,8.915-19.98,19.906c0,10.997,8.948,19.905,19.98,19.905c11.033,0,19.98-8.908,19.98-19.905
					C389.556,49.603,380.609,40.688,369.576,40.688L369.576,40.688z M415.64,40.688c-11.032,0-19.973,8.915-19.973,19.906
					c0,10.997,8.942,19.905,19.973,19.905c11.042,0,19.988-8.908,19.988-19.905C435.628,49.603,426.683,40.688,415.64,40.688
					L415.64,40.688z M346.579,48.334c4.397-8.165,13.049-13.717,22.997-13.717c9.984,0,18.646,5.585,23.035,13.795
					c4.384-8.211,13.05-13.795,23.029-13.795c14.403,0,26.069,11.63,26.069,25.978s-11.665,25.978-26.069,25.978
					c-9.979,0-18.645-5.588-23.029-13.796c-4.389,8.208-13.052,13.796-23.035,13.796c-9.987,0-18.656-5.591-23.039-13.806
					c-4.393,8.169-13.049,13.72-22.994,13.72c-14.4,0-26.077-11.633-26.077-25.984c0-14.343,11.678-25.974,26.077-25.974
					C333.527,34.528,342.199,40.12,346.579,48.334L346.579,48.334z"/>
				<polygon points="427.323,48.824 427.323,55.337 420.995,55.337 419.55,55.266 419.55,72.636 411.725,72.636 411.725,55.266 
					410.267,55.337 403.95,55.337 403.95,48.824 				"/>
				<polygon points="335.219,48.824 335.219,55.337 328.894,55.337 327.446,55.266 327.446,72.636 319.625,72.636 319.621,55.266 
					318.166,55.337 311.846,55.337 311.846,48.824 				"/>
				<polygon points="365.309,72.636 365.309,60.487 365.602,60.955 373.921,72.636 381.205,72.636 381.205,48.824 373.845,48.824 
					373.845,60.957 373.553,60.502 365.206,48.824 357.93,48.824 357.93,72.636 				"/>
			</g>
			<g>
				<path fill="#FF6600" d="M321.644,39.5c-11.033,0-19.983,8.911-19.983,19.908c0,10.995,8.951,19.9,19.983,19.9
					c11.033,0,19.977-8.905,19.977-19.9C341.621,48.411,332.676,39.5,321.644,39.5L321.644,39.5z M367.676,39.591
					c-11.033,0-19.978,8.91-19.978,19.902c0,10.996,8.945,19.908,19.978,19.908s19.974-8.912,19.974-19.908
					C387.651,48.501,378.709,39.591,367.676,39.591L367.676,39.591z M413.748,39.591c-11.042,0-19.981,8.91-19.981,19.902
					c0,10.996,8.939,19.908,19.981,19.908c11.032,0,19.977-8.912,19.977-19.908C433.725,48.501,424.78,39.591,413.748,39.591
					L413.748,39.591z M344.683,47.233c4.396-8.162,13.039-13.714,22.993-13.714c9.984,0,18.651,5.584,23.033,13.794
					c4.383-8.211,13.057-13.794,23.039-13.794c14.399,0,26.068,11.629,26.068,25.974c0,14.351-11.668,25.979-26.068,25.979
					c-9.982,0-18.656-5.589-23.039-13.79c-4.383,8.201-13.049,13.79-23.033,13.79c-9.983,0-18.659-5.593-23.042-13.807
					c-4.392,8.164-13.035,13.723-22.99,13.723c-14.396,0-26.071-11.639-26.071-25.98c0-14.35,11.675-25.979,26.071-25.979
					C331.631,33.429,340.299,39.019,344.683,47.233L344.683,47.233z"/>
				<polygon fill="#FF6600" points="425.42,47.717 425.42,54.238 419.091,54.238 417.647,54.164 417.647,71.529 409.83,71.529 
					409.822,54.164 408.367,54.238 402.054,54.238 402.054,47.717 				"/>
				<polygon fill="#FF6600" points="333.319,47.717 333.319,54.238 326.995,54.238 325.543,54.164 325.543,71.529 317.722,71.529 
					317.722,54.164 316.271,54.238 309.949,54.238 309.949,47.717 				"/>
				<polygon fill="#FF6600" points="363.41,71.529 363.41,59.392 363.702,59.853 372.021,71.529 379.307,71.529 379.307,47.717 
					371.943,47.717 371.943,59.867 371.654,59.405 363.3,47.717 356.027,47.717 356.027,71.529 				"/>
			</g>
		</g>
	</g>
</g>
<g id="Capa_1">
	<g>
		<circle fill="#E00639" cx="55.593" cy="61.229" r="0.725"/>
		<circle fill="#E00639" cx="50.525" cy="61.229" r="0.725"/>
		<circle fill="#E00639" cx="45.457" cy="61.229" r="0.725"/>
		<circle fill="#E00639" cx="40.39" cy="61.229" r="0.725"/>
		<circle fill="#E00639" cx="35.32" cy="61.229" r="0.725"/>
		<circle fill="#E00639" cx="30.252" cy="61.229" r="0.725"/>
		<circle fill="#E00639" cx="25.184" cy="61.229" r="0.725"/>
		<circle fill="#E00639" cx="20.117" cy="61.229" r="0.725"/>
		<circle fill="#E00639" cx="15.049" cy="61.229" r="0.725"/>
		<circle fill="#E00639" cx="9.98" cy="61.229" r="0.725"/>
		<circle fill="#E00639" cx="65.661" cy="61.229" r="0.725"/>
		<circle fill="#E00639" cx="60.593" cy="61.229" r="0.725"/>
		<circle fill="#E00639" cx="131.583" cy="61.229" r="0.725"/>
		<circle fill="#E00639" cx="126.516" cy="61.229" r="0.725"/>
		<circle fill="#E00639" cx="121.447" cy="61.229" r="0.725"/>
		<circle fill="#E00639" cx="116.379" cy="61.229" r="0.725"/>
		<circle fill="#E00639" cx="111.31" cy="61.229" r="0.725"/>
		<circle fill="#E00639" cx="106.243" cy="61.229" r="0.725"/>
		<circle fill="#E00639" cx="101.174" cy="61.229" r="0.725"/>
		<circle fill="#E00639" cx="96.106" cy="61.229" r="0.725"/>
		<circle fill="#E00639" cx="91.038" cy="61.229" r="0.725"/>
		<circle fill="#E00639" cx="85.971" cy="61.229" r="0.725"/>
		<circle fill="#E00639" cx="80.903" cy="61.229" r="0.725"/>
		<circle fill="#E00639" cx="75.835" cy="61.229" r="0.725"/>
		<circle fill="#E00639" cx="70.765" cy="61.229" r="0.725"/>
		<circle fill="#E00639" cx="141.652" cy="61.229" r="0.725"/>
		<circle fill="#E00639" cx="136.583" cy="61.229" r="0.725"/>
		<circle fill="#E00639" cx="177.132" cy="61.229" r="0.725"/>
		<circle fill="#E00639" cx="172.063" cy="61.229" r="0.725"/>
		<circle fill="#E00639" cx="166.996" cy="61.229" r="0.725"/>
		<circle fill="#E00639" cx="161.926" cy="61.229" r="0.725"/>
		<circle fill="#E00639" cx="156.859" cy="61.229" r="0.725"/>
		<circle fill="#E00639" cx="151.79" cy="61.229" r="0.725"/>
		<circle fill="#E00639" cx="146.723" cy="61.229" r="0.725"/>
		<path fill="#E20916" d="M147.213,26.1c0-0.294,0.4-1.356,0.63-1.584l13.276-13.2c0.42-0.416,1.096-0.416,1.517,0l15.172,15.084
			c0.417,0.417,0.417,1.091,0,1.507l-13.278,13.2c-0.27,0.269-1.421,0.535-1.682,0.535h-14.562c-0.594,0-1.073-0.477-1.073-1.065
			V26.1z"/>
		<path fill="none" stroke="#FFFFFF" stroke-width="0.7078" stroke-miterlimit="3.8636" d="M147.213,26.1
			c0-0.294,0.4-1.356,0.63-1.584l13.276-13.2c0.42-0.416,1.096-0.416,1.517,0l15.172,15.084c0.417,0.417,0.417,1.091,0,1.507
			l-13.278,13.2c-0.27,0.269-1.421,0.535-1.682,0.535h-14.562c-0.594,0-1.073-0.477-1.073-1.065V26.1z"/>
		<path fill="#FFFFFF" d="M153.115,27.217c1.13,0,2.05,0.99,2.05,2.219c0,1.23-0.919,2.219-2.064,2.219
			c-1.145,0-2.063-0.975-2.063-2.219C151.036,28.193,151.955,27.217,153.115,27.217z M151.151,35.314v-3.01
			c0.72,0.679,1.243,0.905,2.161,0.905c1.978,0,3.546-1.682,3.546-3.8c0-2.12-1.54-3.745-3.532-3.745
			c-0.975,0-1.75,0.367-2.317,1.074v-0.833h-1.554v9.41h1.696V35.314z"/>
		<rect x="157.276" y="23.544" fill="#FFFFFF" width="1.696" height="9.425"/>
		<path fill="#FFFFFF" d="M164.276,29.521c0,1.399-0.509,2.134-1.47,2.134c-0.947,0-1.441-0.72-1.441-2.134v-3.616h-1.697v4.141
			c0,1.173,0.241,1.808,0.877,2.401c0.551,0.495,1.271,0.764,2.035,0.764c0.818,0,1.286-0.241,1.835-0.946v0.705h1.556v-7.064
			h-1.697v3.615H164.276z"/>
		<path fill="#FFFFFF" d="M166.149,30.75c0.057,0.58,0.114,0.806,0.283,1.145c0.396,0.776,1.286,1.314,2.246,1.314
			c1.428,0,2.586-1.116,2.586-2.472c0-0.637-0.212-1.13-0.664-1.512c-0.283-0.241-0.679-0.411-1.301-0.606l-0.48-0.156
			c-0.551-0.183-0.721-0.324-0.721-0.649c0-0.34,0.283-0.594,0.649-0.594c0.355,0,0.595,0.212,0.664,0.607h1.668
			c-0.057-1.229-1.06-2.161-2.318-2.161c-1.313,0-2.359,0.975-2.359,2.19c0,0.607,0.211,1.117,0.636,1.497
			c0.367,0.326,0.521,0.396,1.328,0.664c0.947,0.311,1.202,0.511,1.202,0.92c0,0.41-0.326,0.72-0.764,0.72
			c-0.496,0-0.764-0.269-0.934-0.905h-1.722V30.75z"/>
		<polygon points="20.08,47.681 24.295,33.456 28.465,47.681 31.715,47.681 39.705,25.728 34.129,25.728 30.002,39.12 
			26.446,25.728 22.274,25.728 18.63,39.12 14.591,25.728 8.929,25.728 16.875,47.681 		"/>
		<path d="M41.543,34.818c0.701-3.118,3.204-5.138,6.234-5.138c3.029,0,5.401,1.976,6.146,5.138H41.543z M59.06,36.397
			c0-6.321-5.137-11.546-11.372-11.546c-6.366,0-11.547,5.312-11.547,11.899c0,6.497,5.136,11.677,11.591,11.677
			c4.74,0,9.177-3.249,10.538-7.683h-5.798c-1.183,1.931-2.763,2.855-4.916,2.855c-2.677,0-5.136-1.931-5.839-4.566h17.036
			C59.016,37.759,59.06,37.189,59.06,36.397z"/>
		<path d="M69.936,29.813c3.688,0,6.409,2.942,6.409,6.848c0,4.04-2.633,6.937-6.321,6.937c-3.777,0-6.628-3.031-6.628-7.069
			C63.396,32.798,66.293,29.813,69.936,29.813z M63.307,47.681v-2.634c2.151,2.372,4.392,3.382,7.376,3.382
			c6.147,0,10.932-5.093,10.932-11.677c0-6.543-4.916-11.766-11.02-11.766c-2.766,0-5.137,0.965-6.848,2.766v-9.353h-5.269v29.285
			h4.829V47.681z"/>
		<path fill="#FF9222" d="M93.131,29.273c3.34,0,6.054,2.917,6.054,6.544c0,3.628-2.715,6.546-6.097,6.546
			c-3.382,0-6.094-2.877-6.094-6.546C86.993,32.15,89.706,29.273,93.131,29.273z M87.327,53.163v-8.88
			c2.128,2.002,3.675,2.668,6.389,2.668c5.844,0,10.479-4.962,10.479-11.216c0-6.253-4.551-11.047-10.438-11.047
			c-2.881,0-5.18,1.084-6.848,3.169v-2.461h-4.593v27.767H87.327z"/>
		<path fill="#FF9222" d="M113.799,42.364c-3.465,0-6.179-2.834-6.179-6.42c0-3.794,2.673-6.671,6.179-6.671
			c3.548,0,6.137,2.752,6.137,6.462C119.935,39.571,117.347,42.364,113.799,42.364z M120.059,25.396v2.628
			c-1.543-1.961-4.383-3.336-7.014-3.336c-5.928,0-10.438,4.754-10.438,11.006c0,6.464,4.3,11.258,10.146,11.258
			c2.59,0,5.763-1.417,7.306-3.253v2.544h4.594V25.396H120.059z"/>
		<polygon fill="#FF9222" points="133.543,53.163 145.568,25.396 139.847,25.396 134.795,38.76 130.079,25.396 124.356,25.396 
			131.998,44.253 128.157,53.163 		"/>
		<ellipse fill="#52266E" cx="177.141" cy="73.514" rx="0.722" ry="0.729"/>
		<circle fill="#0084D7" cx="121.211" cy="67.811" r="0.728"/>
		<path fill="#E00639" d="M142.93,69.834v-0.002c-0.004-0.812-0.284-1.496-0.794-1.957l-0.035-0.033l-0.011-0.008h-0.002
			c-0.479-0.411-1.13-0.63-1.902-0.637h-0.019h-0.019h-0.008c-0.022,0-0.037,0.001-0.048,0.001c-0.011,0-0.025-0.001-0.039-0.001
			l-0.016,0.001c-0.005-0.001-0.014-0.001-0.022-0.001h-0.001c0.001,0,0-0.002-0.006,0c0-0.002-0.006,0-0.01,0
			c-0.772,0.008-1.422,0.226-1.903,0.637l-0.048,0.041c-0.506,0.461-0.788,1.142-0.793,1.948h-0.001v0.003l-0.003,4.177
			c0,0.056,0.023,0.11,0.067,0.149c0.039,0.04,0.098,0.066,0.157,0.066h0.741c0.061,0,0.118-0.025,0.159-0.066
			c0.045-0.037,0.067-0.092,0.067-0.149v-4.035c0.004-0.594,0.155-1.01,0.427-1.288c0.268-0.268,0.67-0.417,1.223-0.43
			c0.552,0.014,0.954,0.162,1.217,0.43c0.274,0.278,0.425,0.695,0.429,1.288l-0.001,4.035c0,0.056,0.024,0.11,0.067,0.149
			c0.04,0.04,0.099,0.066,0.158,0.066h0.743c0.055,0,0.115-0.025,0.156-0.066c0.044-0.037,0.067-0.092,0.067-0.149L142.93,69.834z"
			/>
		<path fill="#E00639" d="M168.846,69.834v-0.002c-0.004-0.812-0.285-1.496-0.797-1.957l-0.037-0.033l-0.006-0.008
			c-0.483-0.411-1.133-0.63-1.904-0.637h-0.02h-0.019h-0.003c-0.025,0-0.04,0.001-0.053,0.001c-0.011,0-0.022-0.001-0.041-0.001
			l-0.008,0.001c-0.006-0.001-0.015-0.001-0.025-0.001h-0.003c0.003,0-0.001-0.002-0.004,0c-0.003-0.002-0.006,0-0.015,0
			c-0.771,0.008-1.419,0.226-1.898,0.637h-0.004l-0.04,0.041c-0.509,0.461-0.791,1.142-0.792,1.948l-0.003,0.003l-0.006,4.177
			c0,0.056,0.022,0.11,0.067,0.149c0.042,0.04,0.1,0.066,0.159,0.066h0.742c0.061,0,0.116-0.025,0.159-0.066
			c0.041-0.037,0.065-0.092,0.065-0.149l0.002-4.035c0.001-0.594,0.155-1.01,0.428-1.288c0.263-0.268,0.667-0.417,1.219-0.43
			c0.553,0.014,0.956,0.162,1.219,0.43c0.275,0.278,0.424,0.695,0.43,1.288v4.035c0,0.056,0.023,0.11,0.065,0.149
			c0.041,0.04,0.099,0.066,0.159,0.066h0.742c0.058,0,0.116-0.025,0.159-0.066c0.041-0.037,0.065-0.092,0.065-0.149L168.846,69.834z
			"/>
		<path fill="#E00639" d="M154.946,70.725v0.014v0.002v0.018c0,0.664-0.07,1.314-0.324,1.778c-0.25,0.448-0.647,0.744-1.423,0.759
			c-0.008,0-0.015,0-0.029,0h-0.015c-0.782-0.008-1.184-0.309-1.438-0.759c-0.255-0.467-0.324-1.123-0.324-1.791v-0.04
			c0-0.666,0.069-1.2,0.324-1.663c0.253-0.453,0.655-0.753,1.438-0.758h0.006h0.012h0.012c0.781,0.005,1.187,0.305,1.438,0.759
			c0.253,0.463,0.324,0.996,0.324,1.662v0.019H154.946z M155.168,67.91c-0.005-0.005-0.008-0.012-0.014-0.015
			c-0.424-0.39-1.1-0.633-1.883-0.635c-0.012-0.001-0.028-0.001-0.045-0.001c-0.641,0-1.28,0.134-1.832,0.609V67.45v-2.102
			c0-0.057-0.023-0.11-0.064-0.149c-0.044-0.044-0.102-0.064-0.159-0.064h-0.732c-0.059,0-0.116,0.02-0.16,0.064
			c-0.039,0.037-0.063,0.091-0.063,0.149v2.102v4.469v2.094c0,0.056,0.022,0.11,0.063,0.149c0.045,0.04,0.102,0.062,0.16,0.062
			h0.732c0.058,0,0.116-0.021,0.159-0.062c0.04-0.038,0.064-0.092,0.064-0.149v-0.432c0.49,0.546,1.191,0.733,1.832,0.733h0.046
			c0.784-0.002,1.462-0.244,1.882-0.634c0.789-0.75,0.972-1.893,0.973-2.957C156.125,69.665,155.944,68.652,155.168,67.91z"/>
		<path fill="#E00639" d="M135.192,71.678c0,0.557-0.124,0.866-0.288,1.011c-0.394,0.364-0.887,0.422-1.485,0.422h-0.005h-0.012
			c-0.577,0.001-0.952-0.1-1.168-0.254c-0.203-0.149-0.309-0.356-0.315-0.721v-0.015c0.004-0.36,0.115-0.585,0.322-0.742
			c0.215-0.164,0.575-0.271,1.118-0.271h0.006h1.828v0.57H135.192z M136.421,69.523V69.52c0-0.709-0.236-1.315-0.729-1.719
			c-0.496-0.409-1.21-0.602-2.13-0.602h-0.033h-0.013c-0.964-0.003-1.732,0.207-2.315,0.828l-0.002-0.004l-0.033,0.042
			c-0.047,0.047-0.087,0.098-0.127,0.152c0,0.001,0,0.001-0.005,0.004l-0.056,0.068c-0.035,0.042-0.056,0.097-0.047,0.157
			c0.005,0.057,0.035,0.11,0.08,0.151l0.034,0.029c0.012,0.014,0.027,0.028,0.045,0.044l0.129,0.108l0.344,0.299
			c0.047,0.037,0.106,0.057,0.161,0.055c0.058-0.001,0.112-0.025,0.147-0.07l0.222-0.263v-0.002c0.14-0.15,0.281-0.257,0.454-0.332
			c0.245-0.106,0.558-0.156,1.006-0.158l0.008-0.001h0.015c0.644,0.001,1.042,0.132,1.271,0.331
			c0.228,0.199,0.344,0.498,0.346,0.962v0.022v0.435h-1.907c-0.771,0.002-1.414,0.175-1.875,0.538c-0.464,0.354-0.72,0.9-0.72,1.534
			v0.022c0,0.532,0.2,1.047,0.561,1.411c0.487,0.48,1.139,0.654,2.12,0.654h0.012h0.497c0.9,0,1.545-0.222,1.963-0.67
			c0.414-0.448,0.579-1.095,0.579-1.902v-2.106v-0.015H136.421z"/>
		<path fill="#E00639" d="M157.845,72.143v-0.017c0.005-0.359,0.114-0.583,0.319-0.739c0.216-0.166,0.579-0.271,1.123-0.271h0.006
			h1.826v0.568c-0.002,0.559-0.124,0.867-0.29,1.011c-0.396,0.365-0.886,0.421-1.485,0.421h-0.003h-0.013
			c-0.577,0.001-0.952-0.098-1.166-0.253C157.955,72.718,157.85,72.506,157.845,72.143z M162.345,69.531v-0.002
			c0-0.709-0.235-1.314-0.731-1.722c-0.494-0.406-1.211-0.598-2.13-0.598h-0.031h-0.011c-0.966-0.004-1.733,0.206-2.317,0.828
			l-0.003-0.003l-0.033,0.04c-0.045,0.048-0.084,0.096-0.13,0.151c0,0.002,0,0.003,0,0.003l-0.058,0.069
			c-0.037,0.042-0.056,0.101-0.048,0.157c0.006,0.059,0.035,0.11,0.081,0.15l0.033,0.03c0.011,0.015,0.027,0.031,0.042,0.041
			l0.132,0.108l0.346,0.301c0.046,0.037,0.103,0.058,0.159,0.058c0.056-0.003,0.11-0.03,0.145-0.072l0.222-0.263
			c0.141-0.152,0.281-0.258,0.457-0.333c0.243-0.107,0.553-0.155,1.006-0.159h0.005h0.014c0.645,0,1.043,0.132,1.271,0.33
			c0.229,0.199,0.344,0.497,0.346,0.962c0,0,0,0.01,0.002,0.019v0.439h-1.909c-0.769,0.001-1.41,0.175-1.876,0.538
			c-0.463,0.354-0.72,0.9-0.72,1.533v0.022c0,0.531,0.198,1.049,0.563,1.409c0.486,0.481,1.137,0.652,2.119,0.652h0.012h0.499
			c0.901,0.004,1.545-0.218,1.961-0.666c0.416-0.448,0.579-1.097,0.579-1.903v-2.103v-0.017H162.345z"/>
		<path fill="#E00639" d="M124.964,67.224h-1.253v-1.271v-0.62c0-0.107-0.098-0.2-0.218-0.2h-0.757c-0.054,0-0.112,0.02-0.153,0.059
			c-0.039,0.038-0.065,0.088-0.065,0.14v1.137v5.967c0,0.484,0.143,0.921,0.447,1.251c0.293,0.32,0.768,0.519,1.315,0.519h0.002
			h0.363v-0.003h0.318c0.056,0,0.112-0.024,0.152-0.065c0.037-0.041,0.061-0.103,0.061-0.162v-0.737
			c0-0.056-0.022-0.115-0.061-0.158c-0.04-0.044-0.096-0.068-0.152-0.068h-0.582c-0.119-0.002-0.212-0.017-0.293-0.048
			c-0.057-0.017-0.086-0.037-0.116-0.056c-0.035-0.024-0.052-0.035-0.087-0.068c-0.112-0.118-0.174-0.305-0.174-0.582v-3.847h1.253
			c0.056,0,0.112-0.027,0.152-0.067c0.037-0.041,0.061-0.1,0.061-0.159v-0.738c0-0.058-0.022-0.116-0.061-0.158
			C125.074,67.246,125.019,67.224,124.964,67.224z"/>
		<path fill="#E00639" d="M130.381,68.094l-0.069-0.079c-0.001-0.01-0.008-0.017-0.018-0.024l-0.042-0.046h0.003l-0.058-0.058
			l-0.048-0.054l-0.004,0.002c-0.427-0.45-0.959-0.639-1.527-0.639h-0.041c-0.405,0-0.879,0.181-1.162,0.524l-0.2,0.234v-0.096
			v-0.425c0-0.056-0.022-0.112-0.064-0.15c-0.042-0.039-0.1-0.063-0.157-0.063h-0.733c-0.057,0-0.115,0.022-0.157,0.063
			c-0.041,0.037-0.067,0.093-0.067,0.15v0.425v6.147c0,0.056,0.025,0.11,0.067,0.151c0.042,0.039,0.101,0.061,0.157,0.061h0.124
			c0.006,0,0.011,0.002,0.013,0.002h0.463c0.002,0,0.01-0.002,0.013-0.002h0.12c0.058,0,0.115-0.021,0.157-0.061
			c0.04-0.04,0.064-0.095,0.064-0.151v-0.113c0-0.002,0.002-0.004,0.002-0.004v-3.9c0-0.006-0.002-0.011-0.002-0.017v-0.314
			c0.024-0.363,0.141-0.687,0.329-0.927c0.201-0.251,0.499-0.415,0.897-0.417c0.211,0,0.352,0.025,0.473,0.072
			c0.113,0.053,0.23,0.139,0.388,0.303l0.035,0.034l0.156,0.178c0.04,0.04,0.095,0.066,0.151,0.066
			c0.058,0.001,0.118-0.021,0.159-0.064l0.55-0.497c0.046-0.04,0.073-0.096,0.078-0.154
			C130.438,68.192,130.419,68.137,130.381,68.094z"/>
		<path fill="#E00639" d="M148.83,70.621c-0.004,0-0.006-0.005-0.008-0.006h-0.002c-0.427-0.296-0.969-0.403-1.554-0.452
			l-1.09-0.091c-0.456-0.039-0.739-0.133-0.902-0.261c-0.14-0.106-0.224-0.278-0.227-0.54v-0.005v-0.016
			c0.003-0.309,0.123-0.537,0.337-0.689c0.233-0.162,0.597-0.27,1.114-0.27h0.006c0.66,0,1.205,0.155,1.663,0.447h-0.002
			l0.276,0.198c0.046,0.031,0.102,0.044,0.155,0.031c0.056-0.013,0.108-0.048,0.139-0.096l0.41-0.595
			c0.033-0.047,0.046-0.108,0.037-0.165c-0.004-0.029-0.015-0.061-0.031-0.085c-0.016-0.027-0.038-0.053-0.066-0.072l-0.048-0.033
			c-0.651-0.466-1.56-0.726-2.539-0.729c-0.784,0-1.453,0.189-1.94,0.55c-0.48,0.355-0.765,0.892-0.765,1.504v0.008v0.003v0.018
			c0,0.54,0.2,1.016,0.598,1.341c0.406,0.331,0.974,0.508,1.692,0.563l1.12,0.093c0.413,0.037,0.672,0.13,0.822,0.254
			c0.134,0.108,0.215,0.279,0.217,0.551v0.015v0.002c-0.002,0.341-0.141,0.579-0.397,0.742c-0.276,0.174-0.725,0.281-1.348,0.281
			h-0.005c-0.001,0-0.003,0-0.012,0.001h-0.005c-0.821-0.004-1.405-0.188-1.861-0.564l-0.238-0.203
			c-0.041-0.033-0.102-0.049-0.157-0.044c-0.056,0.008-0.109,0.037-0.149,0.083l-0.472,0.568c-0.036,0.046-0.056,0.104-0.053,0.162
			c0.003,0.057,0.03,0.112,0.071,0.149l0.224,0.189c0.004,0.003,0.006,0.007,0.008,0.011l0.031,0.024l0.003-0.004
			c0.69,0.5,1.554,0.74,2.607,0.74h0.019c0.868,0,1.605-0.191,2.14-0.56c0.53-0.364,0.846-0.927,0.846-1.576v-0.033
			C149.5,71.407,149.248,70.913,148.83,70.621z"/>
		<path fill="#E00639" d="M175.794,73.923l-0.917-1.295l-1.836-2.682l1.427-1.514l0.829-0.877l0.051-0.057
			c0.095-0.096,0.049-0.199,0.007-0.235c-0.041-0.04-0.098-0.064-0.159-0.064h-0.951c-0.059,0-0.131,0.044-0.175,0.081
			c0,0,0.001,0,0,0l-3.202,3.417v-2.856v-2.516c0-0.056-0.021-0.112-0.066-0.152c-0.039-0.041-0.101-0.062-0.158-0.062h-0.732
			c-0.058,0-0.114,0.019-0.155,0.062c-0.046,0.039-0.068,0.096-0.068,0.152v2.516v6.163c0,0.057,0.022,0.11,0.068,0.152
			c0.039,0.037,0.098,0.061,0.155,0.061h0.732c0.057,0,0.118-0.023,0.158-0.061c0.045-0.04,0.066-0.095,0.066-0.152v-1.752
			l1.387-1.502l0.937,1.396h-0.004l1.312,1.963c0.028,0.042,0.078,0.112,0.189,0.112h0.953c0.059,0,0.116-0.022,0.16-0.065
			C175.842,74.121,175.869,74.019,175.794,73.923z"/>
		<path fill="#E00639" d="M167.586,65.222h0.129l0.192,0.565l0.193-0.565h0.127v0.67h-0.085v-0.396c0-0.015,0-0.034,0-0.068
			c0-0.03,0.002-0.065,0.002-0.101l-0.192,0.565h-0.088l-0.193-0.565v0.022v0.072c0.001,0.037,0.001,0.059,0.001,0.074v0.396h-0.086
			L167.586,65.222L167.586,65.222z"/>
		<path fill="#E00639" d="M168.91,65.529c0.041,0,0.076-0.008,0.098-0.024c0.023-0.019,0.038-0.046,0.038-0.093
			c0-0.048-0.016-0.079-0.053-0.098c-0.019-0.008-0.041-0.014-0.072-0.014h-0.217v0.229H168.91z M168.613,65.222h0.307
			c0.05,0,0.091,0.008,0.123,0.022c0.063,0.029,0.092,0.081,0.092,0.158c0,0.039-0.006,0.073-0.024,0.098
			c-0.017,0.027-0.041,0.048-0.07,0.062c0.027,0.012,0.048,0.025,0.063,0.044c0.013,0.017,0.017,0.045,0.017,0.085l0.007,0.088
			c0,0.023,0.004,0.045,0.005,0.057c0.006,0.018,0.017,0.035,0.029,0.039v0.017h-0.108c-0.006-0.006-0.007-0.013-0.01-0.022
			c-0.003-0.011-0.003-0.025-0.003-0.054l-0.006-0.112c-0.004-0.041-0.019-0.072-0.048-0.087c-0.017-0.007-0.045-0.011-0.081-0.011
			h-0.202v0.287h-0.09v-0.671H168.613z"/>
		<ellipse fill="#E00639" cx="168.426" cy="65.839" rx="0.044" ry="0.049"/>
		<path fill="#E00639" d="M169.34,65.888c-0.023,0-0.046-0.019-0.046-0.048c0-0.029,0.021-0.05,0.05-0.05
			c0.024,0,0.044,0.021,0.044,0.05c0,0.029-0.019,0.048-0.046,0.048H169.34z"/>
	</g>
	<g display="none">
		<path display="inline" fill="#FFA600" d="M22.318,21.87c-2.348-0.854-4.945,0.355-5.801,2.703L7.773,48.596
			c-0.856,2.349,0.357,4.946,2.705,5.8c2.349,0.856,4.947-0.355,5.801-2.703l8.745-24.025C25.879,25.323,24.666,22.724,22.318,21.87
			z"/>
		<path display="inline" fill="#FFA600" d="M6.413,30.923c-2.347-0.857-4.946,0.356-5.799,2.705L-8.131,57.65
			C-8.986,60-7.774,62.595-5.425,63.448c2.349,0.856,4.946-0.353,5.799-2.701l8.745-24.024C9.974,34.375,8.762,31.778,6.413,30.923z
			"/>
		<path display="inline" fill="#FFA600" d="M-2.911,21.87c-2.349-0.854-4.946,0.355-5.801,2.703l-8.745,24.024
			c-0.854,2.349,0.357,4.946,2.705,5.8c2.349,0.856,4.946-0.355,5.802-2.703l8.744-24.025C0.649,25.323-0.563,22.724-2.911,21.87z"
			/>
		<g display="inline">
			<path d="M43.514,47.805c-2.501,4.03-6.398,5.414-9.22,5.414c-3.929,0-7.286-2.303-5.963-7.027l1.752-6.26
				c1.324-4.723,5.984-7.064,9.91-7.064c2.823,0,6.081,1.304,5.97,5.375l-4.934,1.42c-0.05-2.956-4.892-2.417-5.632,0.233
				l-1.751,6.257c-0.767,2.727,3.639,3.342,5.648,0.117L43.514,47.805z"/>
			<path d="M57.302,25.803l-2.205,7.873c5.131-1.844,10.357,0.462,8.658,6.528l-3.581,12.787h-5.262l3.592-12.825
				c0.699-2.496-2.831-2.688-4.739-1.728l-4.078,14.553h-5.3l7.616-27.188C52.002,25.803,57.302,25.803,57.302,25.803z"/>
			<path d="M75.172,33.061L69.59,52.99h-5.299l5.582-19.929H75.172z M70.656,28.221c-0.507,1.804,0.468,3.225,2.223,3.225
				c1.905,0,3.601-1.421,4.106-3.225c0.508-1.805-0.404-3.186-2.309-3.186C72.92,25.036,71.163,26.415,70.656,28.221z"/>
			<path d="M82.004,52.912c-6.043,0.885-7.637-2.958-6.422-7.295l5.55-19.815h5.301l-5.549,19.815
				c-0.421,1.497,0.226,2.727,2.401,2.727L82.004,52.912z"/>
			<path d="M99.706,49.61c-2.322,2.842-5.63,3.764-7.958,3.764c-3.964,0-7.312-2.342-5.988-7.066l1.816-6.487
				c1.343-4.8,5.972-7.028,9.937-7.028c3.853,0,7.158,2.227,5.813,7.028l-1.548,5.53h-10.41l-0.269,0.957
				c-0.774,2.766,3.868,3.074,5.826,0.846L99.706,49.61z M98.395,39.589c0.775-2.766-4.717-2.766-5.428,0.037l-0.492,1.766h5.414
				L98.395,39.589z"/>
			<path d="M125.188,33.098l-9.335,9.909c1.189,2.842,2.712,7.333,3.837,9.983h-6.291l-1.393-4.148l-0.193-2.035h-0.269l-1.467,2.11
				c-0.937,1.035-1.948,2.191-3.694,4.072h-5.989l9.192-9.946c-0.632-1.691-0.997-3.379-3.621-9.947h5.986l1.477,4.531l0.196,1.882
				h0.23l1.215-1.882c0.769-0.843,2.108-2.495,3.9-4.531h6.217V33.098z"/>
			<path d="M119.324,60.285l7.314-26.112c2.66-0.921,5.644-1.496,8.12-1.496c4.158,0,7.333,1.728,6.275,6.871l-1.924,6.875
				c-1.473,5.531-8.514,8.065-12.265,6.067l-2.181,7.794C124.663,60.285,119.324,60.285,119.324,60.285z M127.933,48.611
				c1.448,0.961,4.889,0.383,5.8-1.919l2.14-7.64c0.59-2.381-2.615-2.919-4.703-1.999L127.933,48.611z"/>
			<path d="M152.288,32.983h0.04c0.499-0.154,1.348-0.191,1.921-0.191c0.761,0,1.578,0.078,2.687,0.344l-1.217,4.341
				c-2.077-0.616-5.048,0.192-5.909,2.457L146.15,52.99h-5.298l3.678-13.133c0.806-2.878,3.06-5.07,5.508-6.182
				C150.684,33.406,151.521,33.136,152.288,32.983z"/>
			<path d="M168.948,49.61c-2.324,2.842-5.63,3.764-7.956,3.764c-3.967,0-7.313-2.342-5.992-7.066l1.819-6.487
				c1.343-4.8,5.97-7.028,9.939-7.028c3.849,0,7.152,2.227,5.807,7.028l-1.547,5.53h-10.41l-0.27,0.957
				c-0.772,2.766,3.871,3.074,5.83,0.846L168.948,49.61z M167.634,39.589c0.774-2.766-4.714-2.766-5.424,0.037l-0.495,1.766h5.415
				L167.634,39.589z"/>
			<path d="M175.368,46.539c1.706,2.227,4.859,2.957,5.994,1.341c0.819-1.15,0.521-2.264-1.197-2.531
				c-8.89-1.615-4.542-12.367,3.763-12.48c1.803-0.04,4.155,0.422,5.711,2.071l-3.65,3.649c-0.861-1.152-4.145-2.227-5.103,0.383
				c-0.448,1.192,1.265,1.882,2.061,2.035c2.331,0.654,5.101,2.073,4.046,5.837c-1.216,4.338-5.264,6.527-8.963,6.527
				c-2.744,0-4.974-0.884-6.146-3.378L175.368,46.539z"/>
			<path d="M190.507,46.539c1.7,2.227,4.856,2.957,5.994,1.341c0.816-1.15,0.516-2.264-1.199-2.531
				c-8.888-1.615-4.546-12.367,3.765-12.48c1.802-0.04,4.15,0.422,5.711,2.071l-3.656,3.649c-0.858-1.152-4.142-2.227-5.104,0.383
				c-0.446,1.192,1.265,1.882,2.063,2.035c2.337,0.654,5.1,2.073,4.047,5.837c-1.215,4.338-5.26,6.527-8.959,6.527
				c-2.745,0-4.978-0.884-6.147-3.378L190.507,46.539z"/>
		</g>
	</g>
	<g display="none">
		<path display="inline" fill="#FF6600" d="M44.617,21.472c-11.718,0-21.223,9.464-21.223,21.143
			c0,11.677,9.506,21.135,21.223,21.135c11.718,0,21.217-9.458,21.217-21.135C65.833,30.935,56.333,21.472,44.617,21.472
			L44.617,21.472z M93.505,21.568c-11.718,0-21.218,9.463-21.218,21.137c0,11.678,9.5,21.143,21.218,21.143
			c11.718,0,21.213-9.465,21.213-21.143C114.718,31.031,105.221,21.568,93.505,21.568L93.505,21.568z M142.436,21.568
			c-11.727,0-21.221,9.463-21.221,21.137c0,11.678,9.494,21.143,21.221,21.143c11.717,0,21.217-9.465,21.217-21.143
			C163.652,31.031,154.152,21.568,142.436,21.568L142.436,21.568z M69.085,29.684c4.669-8.668,13.848-14.565,24.42-14.565
			c10.604,0,19.807,5.93,24.462,14.65c4.655-8.72,13.867-14.65,24.469-14.65c15.292,0,27.684,12.351,27.684,27.586
			c0,15.241-12.392,27.591-27.684,27.591c-10.601,0-19.814-5.936-24.469-14.646c-4.655,8.71-13.859,14.646-24.462,14.646
			c-10.602,0-19.817-5.94-24.472-14.664c-4.665,8.671-13.844,14.575-24.417,14.575c-15.289,0-27.689-12.361-27.689-27.592
			c0-15.24,12.399-27.591,27.689-27.591C55.223,15.024,64.429,20.961,69.085,29.684L69.085,29.684z"/>
		<polygon display="inline" fill="#FF6600" points="154.832,30.198 154.832,37.124 148.11,37.124 146.577,37.045 146.577,55.488 
			138.273,55.488 138.266,37.045 136.721,37.124 130.015,37.124 130.015,30.198 		"/>
		<polygon display="inline" fill="#FF6600" points="57.016,30.198 57.016,37.124 50.3,37.124 48.758,37.045 48.758,55.488 
			40.451,55.488 40.451,37.045 38.91,37.124 32.196,37.124 32.196,30.198 		"/>
		<polygon display="inline" fill="#FF6600" points="88.974,55.488 88.974,42.598 89.284,43.087 98.12,55.488 105.858,55.488 
			105.858,30.198 98.037,30.198 98.037,43.102 97.729,42.612 88.857,30.198 81.133,30.198 81.133,55.488 		"/>
	</g>
</g>
</svg>
